# xmcd
#
# Track frame offsets: 
#        150
#        26395
#        46840
#        58687
#        74882
#        90742
#        104275
#        115655
#        134640
#        148442
#        160400
#        175370
#
# Disc length: 2592 seconds
#
# Revision: 0
# Processed by: cddbd v1.5.2PL0 Copyright (c) Steve Scherf et al.
# Submitted via: ExactAudioCopy v1.0b2
#
DISCID=b50a1e0c
DTITLE=Various Artist - Space Battleship Yamato CD-BOX - Arrivederci Yamato
DYEAR=2004
DGENRE=Soundtrack
TTITLE0=Overture
TTITLE1=White Comet
TTITLE2=Andromeda
TTITLE3=Hero's Hill
TTITLE4=Teresa Forever
TTITLE5=I Remember You
TTITLE6=Desler - Attacking
TTITLE7=Delser - Loneliness
TTITLE8=Desler - Rival
TTITLE9=Gatlantis
TTITLE10=Great Love
TTITLE11=From Yamato with Love
EXTD=YEAR: 1978.8.1
EXTT0=
EXTT1=
EXTT2=
EXTT3=
EXTT4=
EXTT5=
EXTT6=
EXTT7=
EXTT8=
EXTT9=
EXTT10=
EXTT11=
PLAYORDER=
